<?xml version="1.0" encoding="utf-8"?>
<!-- Generator: Adobe Illustrator 16.0.0, SVG Export Plug-In . SVG Version: 6.00 Build 0)  -->
<!DOCTYPE svg PUBLIC "-//W3C//DTD SVG 1.1//EN" "http://www.w3.org/Graphics/SVG/1.1/DTD/svg11.dtd">
<svg version="1.1" id="Layer_1" focusable="false" xmlns="http://www.w3.org/2000/svg" xmlns:xlink="http://www.w3.org/1999/xlink"
	 x="0px" y="0px" width="945px" height="826.875px" viewBox="487.5 126.563 945 826.875"
	 enable-background="new 487.5 126.563 945 826.875" xml:space="preserve">
<path fill="#2894E7" d="M521.25,278.438h877.5c18.641,0,33.75-15.109,33.75-33.75v-84.375c0-18.641-15.109-33.75-33.75-33.75h-877.5
	c-18.641,0-33.75,15.109-33.75,33.75v84.375C487.5,263.328,502.609,278.438,521.25,278.438z M521.25,615.938h877.5
	c18.641,0,33.75-15.11,33.75-33.75v-84.375c0-18.641-15.109-33.75-33.75-33.75h-877.5c-18.641,0-33.75,15.109-33.75,33.75v84.375
	C487.5,600.827,502.609,615.938,521.25,615.938z M521.25,953.438h877.5c18.641,0,33.75-15.11,33.75-33.75v-84.375
	c0-18.641-15.109-33.75-33.75-33.75h-877.5c-18.641,0-33.75,15.109-33.75,33.75v84.375
	C487.5,938.327,502.609,953.438,521.25,953.438z"/>
</svg>
