<?xml version="1.0" encoding="utf-8"?>
<!-- Generator: Adobe Illustrator 16.0.0, SVG Export Plug-In . SVG Version: 6.00 Build 0)  -->
<!DOCTYPE svg PUBLIC "-//W3C//DTD SVG 1.1//EN" "http://www.w3.org/Graphics/SVG/1.1/DTD/svg11.dtd">
<svg version="1.1" id="Layer_1" focusable="false" xmlns="http://www.w3.org/2000/svg" xmlns:xlink="http://www.w3.org/1999/xlink"
	 x="0px" y="0px" width="742.5px" height="742.5px" viewBox="588.75 168.75 742.5 742.5"
	 enable-background="new 588.75 168.75 742.5 742.5" xml:space="preserve">
<path fill="#FFFFFF" d="M1100.737,540l211.086-211.086c25.902-25.902,25.902-67.9,0-93.824l-46.913-46.913
	c-25.903-25.902-67.9-25.902-93.825,0L960,399.262L748.915,188.177c-25.903-25.902-67.901-25.902-93.825,0l-46.912,46.913
	c-25.903,25.902-25.903,67.9,0,93.824L819.263,540L608.178,751.085c-25.903,25.903-25.903,67.9,0,93.825l46.912,46.912
	c25.903,25.903,67.922,25.903,93.825,0L960,680.738l211.085,211.085c25.903,25.903,67.922,25.903,93.825,0l46.913-46.912
	c25.902-25.903,25.902-67.901,0-93.825L1100.737,540z"/>
</svg>
