<?xml version="1.0" encoding="utf-8"?>
<!-- Generator: Adobe Illustrator 25.0.1, SVG Export Plug-In . SVG Version: 6.00 Build 0)  -->
<svg version="1.1" id="Layer_1" xmlns="http://www.w3.org/2000/svg" xmlns:xlink="http://www.w3.org/1999/xlink" x="0px" y="0px"
	 viewBox="0 0 512 512" style="enable-background:new 0 0 512 512;" xml:space="preserve">
<style type="text/css">
	.st0{fill:#F1F3F5;}
</style>
<path class="st0" d="M330.2,153.5L256,227.7l-74.2-74.2c-7.8-7.8-20.5-7.8-28.3,0c-7.8,7.8-7.8,20.5,0,28.3l74.2,74.2l-74.2,74.2
	c-7.8,7.8-7.8,20.5,0,28.3c7.8,7.8,20.5,7.8,28.3,0l74.2-74.2l74.2,74.2c7.8,7.8,20.5,7.8,28.3,0s7.8-20.5,0-28.3L284.3,256
	l74.2-74.2c7.8-7.8,7.8-20.5,0-28.3C350.8,145.7,338,145.7,330.2,153.5z"/>
</svg>
